
    <svg xmlns="http://www.w3.org/2000/svg" viewBox="0 0 1200 500" width="1200" height="500">
        <defs>
            <clipPath id="c"><rect x="10" y="10" width="1180" height="480"/></clipPath>
        </defs>
        <rect width="1200" height="500" fill="none"/>
        <g clip-path="url(#c)">
            <path d="M 10,490 L 10,104.60869565217394 C 20.83673469387755,104.60869565217394 23.24489795918367,68.43478260869563 34.08163265306122,68.43478260869563 C 44.91836734693877,68.43478260869563 47.326530612244895,466.3478260869565 58.16326530612245,466.3478260869565 C 69,466.3478260869565 71.40816326530611,277.1304347826087 82.24489795918367,277.1304347826087 C 93.08163265306122,277.1304347826087 95.48979591836735,362 106.3265306122449,362 C 117.16326530612245,362 119.57142857142858,71.21739130434781 130.40816326530614,71.21739130434781 C 141.24489795918367,71.21739130434781 143.65306122448982,406.52173913043475 154.48979591836735,406.52173913043475 C 165.32653061224488,406.52173913043475 167.73469387755102,67.04347826086956 178.57142857142856,67.04347826086956 C 189.40816326530611,67.04347826086956 191.81632653061223,94.86956521739131 202.6530612244898,94.86956521739131 C 213.48979591836735,94.86956521739131 215.89795918367346,407.9130434782609 226.73469387755102,407.9130434782609 C 237.57142857142858,407.9130434782609 239.9795918367347,458 250.81632653061226,458 C 261.6530612244898,458 264.06122448979596,464.95652173913044 274.8979591836735,464.95652173913044 C 285.734693877551,464.95652173913044 288.14285714285717,72.60869565217394 298.9795918367347,72.60869565217394 C 309.8163265306123,72.60869565217394 312.2244897959184,480.2608695652174 323.06122448979596,480.2608695652174 C 333.8979591836735,480.2608695652174 336.3061224489796,234 347.1428571428571,234 C 357.9795918367347,234 360.3877551020408,208.95652173913044 371.2244897959184,208.95652173913044 C 382.0612244897959,208.95652173913044 384.46938775510205,490 395.3061224489796,490 C 406.1428571428571,490 408.55102040816325,185.30434782608694 419.3877551020408,185.30434782608694 C 430.2244897959184,185.30434782608694 432.63265306122446,385.6521739130435 443.46938775510205,385.6521739130435 C 454.3061224489796,385.6521739130435 456.7142857142857,463.5652173913044 467.55102040816325,463.5652173913044 C 478.38775510204084,463.5652173913044 480.7959183673469,399.5652173913044 491.6326530612245,399.5652173913044 C 502.46938775510205,399.5652173913044 504.87755102040813,299.39130434782606 515.7142857142857,299.39130434782606 C 526.5510204081633,299.39130434782606 528.9591836734694,435.7391304347826 539.795918367347,435.7391304347826 C 550.6326530612246,435.7391304347826 553.0408163265306,125.47826086956519 563.8775510204082,125.47826086956519 C 574.7142857142858,125.47826086956519 577.1224489795918,124.08695652173913 587.9591836734694,124.08695652173913 C 598.795918367347,124.08695652173913 601.204081632653,151.91304347826087 612.0408163265306,151.91304347826087 C 622.8775510204082,151.91304347826087 625.2857142857143,432.95652173913044 636.1224489795919,432.95652173913044 C 646.9591836734694,432.95652173913044 649.3673469387755,477.47826086956525 660.204081632653,477.47826086956525 C 671.0408163265306,477.47826086956525 673.4489795918366,430.17391304347825 684.2857142857142,430.17391304347825 C 695.1224489795918,430.17391304347825 697.530612244898,345.30434782608694 708.3673469387755,345.30434782608694 C 719.2040816326531,345.30434782608694 721.6122448979592,239.56521739130434 732.4489795918367,239.56521739130434 C 743.2857142857143,239.56521739130434 745.6938775510204,67.04347826086956 756.530612244898,67.04347826086956 C 767.3673469387755,67.04347826086956 769.7755102040816,48.95652173913044 780.6122448979592,48.95652173913044 C 791.4489795918367,48.95652173913044 793.8571428571428,419.04347826086956 804.6938775510204,419.04347826086956 C 815.530612244898,419.04347826086956 817.938775510204,25.30434782608694 828.7755102040816,25.30434782608694 C 839.6122448979592,25.30434782608694 842.0204081632653,470.5217391304348 852.8571428571429,470.5217391304348 C 863.6938775510205,470.5217391304348 866.1020408163265,10 876.9387755102041,10 C 887.7755102040817,10 890.1836734693877,318.8695652173913 901.0204081632653,318.8695652173913 C 911.8571428571429,318.8695652173913 914.2653061224489,403.7391304347826 925.1020408163265,403.7391304347826 C 935.9387755102041,403.7391304347826 938.3469387755101,118.52173913043481 949.1836734693877,118.52173913043481 C 960.0204081632653,118.52173913043481 962.4285714285714,466.3478260869565 973.265306122449,466.3478260869565 C 984.1020408163266,466.3478260869565 986.5102040816327,452.4347826086956 997.3469387755102,452.4347826086956 C 1008.1836734693877,452.4347826086956 1010.5918367346939,117.13043478260869 1021.4285714285713,117.13043478260869 C 1032.265306122449,117.13043478260869 1034.673469387755,203.39130434782606 1045.5102040816325,203.39130434782606 C 1056.3469387755101,203.39130434782606 1058.7551020408164,190.8695652173913 1069.591836734694,190.8695652173913 C 1080.4285714285716,190.8695652173913 1082.8367346938776,487.2173913043478 1093.6734693877552,487.2173913043478 C 1104.5102040816328,487.2173913043478 1106.9183673469388,89.304347826087 1117.7551020408164,89.304347826087 C 1128.591836734694,89.304347826087 1131,364.7826086956522 1141.8367346938776,364.7826086956522 C 1152.6734693877552,364.7826086956522 1155.0816326530612,135.21739130434787 1165.9183673469388,135.21739130434787 C 1176.7551020408164,135.21739130434787 1179.1632653061224,122.695652173913 1190,122.695652173913 L 1190,490 Z" fill="rgba(61,227,195,0.75)"/>
            <path d="M 10,104.60869565217394 C 20.83673469387755,104.60869565217394 23.24489795918367,68.43478260869563 34.08163265306122,68.43478260869563 C 44.91836734693877,68.43478260869563 47.326530612244895,466.3478260869565 58.16326530612245,466.3478260869565 C 69,466.3478260869565 71.40816326530611,277.1304347826087 82.24489795918367,277.1304347826087 C 93.08163265306122,277.1304347826087 95.48979591836735,362 106.3265306122449,362 C 117.16326530612245,362 119.57142857142858,71.21739130434781 130.40816326530614,71.21739130434781 C 141.24489795918367,71.21739130434781 143.65306122448982,406.52173913043475 154.48979591836735,406.52173913043475 C 165.32653061224488,406.52173913043475 167.73469387755102,67.04347826086956 178.57142857142856,67.04347826086956 C 189.40816326530611,67.04347826086956 191.81632653061223,94.86956521739131 202.6530612244898,94.86956521739131 C 213.48979591836735,94.86956521739131 215.89795918367346,407.9130434782609 226.73469387755102,407.9130434782609 C 237.57142857142858,407.9130434782609 239.9795918367347,458 250.81632653061226,458 C 261.6530612244898,458 264.06122448979596,464.95652173913044 274.8979591836735,464.95652173913044 C 285.734693877551,464.95652173913044 288.14285714285717,72.60869565217394 298.9795918367347,72.60869565217394 C 309.8163265306123,72.60869565217394 312.2244897959184,480.2608695652174 323.06122448979596,480.2608695652174 C 333.8979591836735,480.2608695652174 336.3061224489796,234 347.1428571428571,234 C 357.9795918367347,234 360.3877551020408,208.95652173913044 371.2244897959184,208.95652173913044 C 382.0612244897959,208.95652173913044 384.46938775510205,490 395.3061224489796,490 C 406.1428571428571,490 408.55102040816325,185.30434782608694 419.3877551020408,185.30434782608694 C 430.2244897959184,185.30434782608694 432.63265306122446,385.6521739130435 443.46938775510205,385.6521739130435 C 454.3061224489796,385.6521739130435 456.7142857142857,463.5652173913044 467.55102040816325,463.5652173913044 C 478.38775510204084,463.5652173913044 480.7959183673469,399.5652173913044 491.6326530612245,399.5652173913044 C 502.46938775510205,399.5652173913044 504.87755102040813,299.39130434782606 515.7142857142857,299.39130434782606 C 526.5510204081633,299.39130434782606 528.9591836734694,435.7391304347826 539.795918367347,435.7391304347826 C 550.6326530612246,435.7391304347826 553.0408163265306,125.47826086956519 563.8775510204082,125.47826086956519 C 574.7142857142858,125.47826086956519 577.1224489795918,124.08695652173913 587.9591836734694,124.08695652173913 C 598.795918367347,124.08695652173913 601.204081632653,151.91304347826087 612.0408163265306,151.91304347826087 C 622.8775510204082,151.91304347826087 625.2857142857143,432.95652173913044 636.1224489795919,432.95652173913044 C 646.9591836734694,432.95652173913044 649.3673469387755,477.47826086956525 660.204081632653,477.47826086956525 C 671.0408163265306,477.47826086956525 673.4489795918366,430.17391304347825 684.2857142857142,430.17391304347825 C 695.1224489795918,430.17391304347825 697.530612244898,345.30434782608694 708.3673469387755,345.30434782608694 C 719.2040816326531,345.30434782608694 721.6122448979592,239.56521739130434 732.4489795918367,239.56521739130434 C 743.2857142857143,239.56521739130434 745.6938775510204,67.04347826086956 756.530612244898,67.04347826086956 C 767.3673469387755,67.04347826086956 769.7755102040816,48.95652173913044 780.6122448979592,48.95652173913044 C 791.4489795918367,48.95652173913044 793.8571428571428,419.04347826086956 804.6938775510204,419.04347826086956 C 815.530612244898,419.04347826086956 817.938775510204,25.30434782608694 828.7755102040816,25.30434782608694 C 839.6122448979592,25.30434782608694 842.0204081632653,470.5217391304348 852.8571428571429,470.5217391304348 C 863.6938775510205,470.5217391304348 866.1020408163265,10 876.9387755102041,10 C 887.7755102040817,10 890.1836734693877,318.8695652173913 901.0204081632653,318.8695652173913 C 911.8571428571429,318.8695652173913 914.2653061224489,403.7391304347826 925.1020408163265,403.7391304347826 C 935.9387755102041,403.7391304347826 938.3469387755101,118.52173913043481 949.1836734693877,118.52173913043481 C 960.0204081632653,118.52173913043481 962.4285714285714,466.3478260869565 973.265306122449,466.3478260869565 C 984.1020408163266,466.3478260869565 986.5102040816327,452.4347826086956 997.3469387755102,452.4347826086956 C 1008.1836734693877,452.4347826086956 1010.5918367346939,117.13043478260869 1021.4285714285713,117.13043478260869 C 1032.265306122449,117.13043478260869 1034.673469387755,203.39130434782606 1045.5102040816325,203.39130434782606 C 1056.3469387755101,203.39130434782606 1058.7551020408164,190.8695652173913 1069.591836734694,190.8695652173913 C 1080.4285714285716,190.8695652173913 1082.8367346938776,487.2173913043478 1093.6734693877552,487.2173913043478 C 1104.5102040816328,487.2173913043478 1106.9183673469388,89.304347826087 1117.7551020408164,89.304347826087 C 1128.591836734694,89.304347826087 1131,364.7826086956522 1141.8367346938776,364.7826086956522 C 1152.6734693877552,364.7826086956522 1155.0816326530612,135.21739130434787 1165.9183673469388,135.21739130434787 C 1176.7551020408164,135.21739130434787 1179.1632653061224,122.695652173913 1190,122.695652173913" fill="none" stroke="#3de3c3" stroke-width="3" stroke-linecap="round" stroke-linejoin="round"/>
            <circle cx="10" cy="104.60869565217394" r="3" fill="#7fffe1"/>
    <circle cx="34.08163265306122" cy="68.43478260869563" r="3" fill="#7fffe1"/>
    <circle cx="58.16326530612245" cy="466.3478260869565" r="3" fill="#7fffe1"/>
    <circle cx="82.24489795918367" cy="277.1304347826087" r="3" fill="#7fffe1"/>
    <circle cx="106.3265306122449" cy="362" r="3" fill="#7fffe1"/>
    <circle cx="130.40816326530614" cy="71.21739130434781" r="3" fill="#7fffe1"/>
    <circle cx="154.48979591836735" cy="406.52173913043475" r="3" fill="#7fffe1"/>
    <circle cx="178.57142857142856" cy="67.04347826086956" r="3" fill="#7fffe1"/>
    <circle cx="202.6530612244898" cy="94.86956521739131" r="3" fill="#7fffe1"/>
    <circle cx="226.73469387755102" cy="407.9130434782609" r="3" fill="#7fffe1"/>
    <circle cx="250.81632653061226" cy="458" r="3" fill="#7fffe1"/>
    <circle cx="274.8979591836735" cy="464.95652173913044" r="3" fill="#7fffe1"/>
    <circle cx="298.9795918367347" cy="72.60869565217394" r="3" fill="#7fffe1"/>
    <circle cx="323.06122448979596" cy="480.2608695652174" r="3" fill="#7fffe1"/>
    <circle cx="347.1428571428571" cy="234" r="3" fill="#7fffe1"/>
    <circle cx="371.2244897959184" cy="208.95652173913044" r="3" fill="#7fffe1"/>
    <circle cx="395.3061224489796" cy="490" r="3" fill="#7fffe1"/>
    <circle cx="419.3877551020408" cy="185.30434782608694" r="3" fill="#7fffe1"/>
    <circle cx="443.46938775510205" cy="385.6521739130435" r="3" fill="#7fffe1"/>
    <circle cx="467.55102040816325" cy="463.5652173913044" r="3" fill="#7fffe1"/>
    <circle cx="491.6326530612245" cy="399.5652173913044" r="3" fill="#7fffe1"/>
    <circle cx="515.7142857142857" cy="299.39130434782606" r="3" fill="#7fffe1"/>
    <circle cx="539.795918367347" cy="435.7391304347826" r="3" fill="#7fffe1"/>
    <circle cx="563.8775510204082" cy="125.47826086956519" r="3" fill="#7fffe1"/>
    <circle cx="587.9591836734694" cy="124.08695652173913" r="3" fill="#7fffe1"/>
    <circle cx="612.0408163265306" cy="151.91304347826087" r="3" fill="#7fffe1"/>
    <circle cx="636.1224489795919" cy="432.95652173913044" r="3" fill="#7fffe1"/>
    <circle cx="660.204081632653" cy="477.47826086956525" r="3" fill="#7fffe1"/>
    <circle cx="684.2857142857142" cy="430.17391304347825" r="3" fill="#7fffe1"/>
    <circle cx="708.3673469387755" cy="345.30434782608694" r="3" fill="#7fffe1"/>
    <circle cx="732.4489795918367" cy="239.56521739130434" r="3" fill="#7fffe1"/>
    <circle cx="756.530612244898" cy="67.04347826086956" r="3" fill="#7fffe1"/>
    <circle cx="780.6122448979592" cy="48.95652173913044" r="3" fill="#7fffe1"/>
    <circle cx="804.6938775510204" cy="419.04347826086956" r="3" fill="#7fffe1"/>
    <circle cx="828.7755102040816" cy="25.30434782608694" r="3" fill="#7fffe1"/>
    <circle cx="852.8571428571429" cy="470.5217391304348" r="3" fill="#7fffe1"/>
    <circle cx="876.9387755102041" cy="10" r="3" fill="#7fffe1"/>
    <circle cx="901.0204081632653" cy="318.8695652173913" r="3" fill="#7fffe1"/>
    <circle cx="925.1020408163265" cy="403.7391304347826" r="3" fill="#7fffe1"/>
    <circle cx="949.1836734693877" cy="118.52173913043481" r="3" fill="#7fffe1"/>
    <circle cx="973.265306122449" cy="466.3478260869565" r="3" fill="#7fffe1"/>
    <circle cx="997.3469387755102" cy="452.4347826086956" r="3" fill="#7fffe1"/>
    <circle cx="1021.4285714285713" cy="117.13043478260869" r="3" fill="#7fffe1"/>
    <circle cx="1045.5102040816325" cy="203.39130434782606" r="3" fill="#7fffe1"/>
    <circle cx="1069.591836734694" cy="190.8695652173913" r="3" fill="#7fffe1"/>
    <circle cx="1093.6734693877552" cy="487.2173913043478" r="3" fill="#7fffe1"/>
    <circle cx="1117.7551020408164" cy="89.304347826087" r="3" fill="#7fffe1"/>
    <circle cx="1141.8367346938776" cy="364.7826086956522" r="3" fill="#7fffe1"/>
    <circle cx="1165.9183673469388" cy="135.21739130434787" r="3" fill="#7fffe1"/>
    <circle cx="1190" cy="122.695652173913" r="3" fill="#7fffe1"/>
        </g>
    </svg>
    