
    <svg xmlns="http://www.w3.org/2000/svg" viewBox="0 0 1200 500" width="1200" height="500">
        <defs>
            <clipPath id="c"><rect x="10" y="10" width="1180" height="480"/></clipPath>
        </defs>
        <rect width="1200" height="500" fill="none"/>
        <g clip-path="url(#c)">
            <path d="M 10,490 L 10,298.78504672897196 C 20.83673469387755,298.78504672897196 23.24489795918367,345.8878504672897 34.08163265306122,345.8878504672897 C 44.91836734693877,345.8878504672897 47.326530612244895,302.14953271028037 58.16326530612245,302.14953271028037 C 69,302.14953271028037 71.40816326530611,380.0934579439252 82.24489795918367,380.0934579439252 C 93.08163265306122,380.0934579439252 95.48979591836735,414.29906542056074 106.3265306122449,414.29906542056074 C 117.16326530612245,414.29906542056074 119.57142857142858,341.4018691588785 130.40816326530614,341.4018691588785 C 141.24489795918367,341.4018691588785 143.65306122448982,215.23364485981307 154.48979591836735,215.23364485981307 C 165.32653061224488,215.23364485981307 167.73469387755102,289.81308411214957 178.57142857142856,289.81308411214957 C 189.40816326530611,289.81308411214957 191.81632653061223,389.6261682242991 202.6530612244898,389.6261682242991 C 213.48979591836735,389.6261682242991 215.89795918367346,239.90654205607476 226.73469387755102,239.90654205607476 C 237.57142857142858,239.90654205607476 239.9795918367347,73.92523364485982 250.81632653061226,73.92523364485982 C 261.6530612244898,73.92523364485982 264.06122448979596,490 274.8979591836735,490 C 285.734693877551,490 288.14285714285717,232.6168224299065 298.9795918367347,232.6168224299065 C 309.8163265306123,232.6168224299065 312.2244897959184,67.196261682243 323.06122448979596,67.196261682243 C 333.8979591836735,67.196261682243 336.3061224489796,456.3551401869159 347.1428571428571,456.3551401869159 C 357.9795918367347,456.3551401869159 360.3877551020408,293.7383177570093 371.2244897959184,293.7383177570093 C 382.0612244897959,293.7383177570093 384.46938775510205,281.4018691588785 395.3061224489796,281.4018691588785 C 406.1428571428571,281.4018691588785 408.55102040816325,131.12149532710282 419.3877551020408,131.12149532710282 C 430.2244897959184,131.12149532710282 432.63265306122446,266.8224299065421 443.46938775510205,266.8224299065421 C 454.3061224489796,266.8224299065421 456.7142857142857,350.373831775701 467.55102040816325,350.373831775701 C 478.38775510204084,350.373831775701 480.7959183673469,382.8971962616822 491.6326530612245,382.8971962616822 C 502.46938775510205,382.8971962616822 504.87755102040813,10 515.7142857142857,10 C 526.5510204081633,10 528.9591836734694,196.7289719626168 539.795918367347,196.7289719626168 C 550.6326530612246,196.7289719626168 553.0408163265306,319.53271028037386 563.8775510204082,319.53271028037386 C 574.7142857142858,319.53271028037386 577.1224489795918,239.34579439252337 587.9591836734694,239.34579439252337 C 598.795918367347,239.34579439252337 601.204081632653,101.96261682242988 612.0408163265306,101.96261682242988 C 622.8775510204082,101.96261682242988 625.2857142857143,386.2616822429907 636.1224489795919,386.2616822429907 C 646.9591836734694,386.2616822429907 649.3673469387755,265.14018691588785 660.204081632653,265.14018691588785 C 671.0408163265306,265.14018691588785 673.4489795918366,370 684.2857142857142,370 C 695.1224489795918,370 697.530612244898,384.57943925233644 708.3673469387755,384.57943925233644 C 719.2040816326531,384.57943925233644 721.6122448979592,361.02803738317755 732.4489795918367,361.02803738317755 C 743.2857142857143,361.02803738317755 745.6938775510204,280.8411214953271 756.530612244898,280.8411214953271 C 767.3673469387755,280.8411214953271 769.7755102040816,417.66355140186914 780.6122448979592,417.66355140186914 C 791.4489795918367,417.66355140186914 793.8571428571428,359.9065420560748 804.6938775510204,359.9065420560748 C 815.530612244898,359.9065420560748 817.938775510204,239.90654205607476 828.7755102040816,239.90654205607476 C 839.6122448979592,239.90654205607476 842.0204081632653,248.3177570093458 852.8571428571429,248.3177570093458 C 863.6938775510205,248.3177570093458 866.1020408163265,311.68224299065423 876.9387755102041,311.68224299065423 C 887.7755102040817,311.68224299065423 890.1836734693877,80.65420560747663 901.0204081632653,80.65420560747663 C 911.8571428571429,80.65420560747663 914.2653061224489,259.53271028037386 925.1020408163265,259.53271028037386 C 935.9387755102041,259.53271028037386 938.3469387755101,341.96261682242994 949.1836734693877,341.96261682242994 C 960.0204081632653,341.96261682242994 962.4285714285714,251.6822429906542 973.265306122449,251.6822429906542 C 984.1020408163266,251.6822429906542 986.5102040816327,253.3644859813084 997.3469387755102,253.3644859813084 C 1008.1836734693877,253.3644859813084 1010.5918367346939,156.9158878504673 1021.4285714285713,156.9158878504673 C 1032.265306122449,156.9158878504673 1034.673469387755,350.9345794392524 1045.5102040816325,350.9345794392524 C 1056.3469387755101,350.9345794392524 1058.7551020408164,322.3364485981308 1069.591836734694,322.3364485981308 C 1080.4285714285716,322.3364485981308 1082.8367346938776,316.7289719626168 1093.6734693877552,316.7289719626168 C 1104.5102040816328,316.7289719626168 1106.9183673469388,240.4672897196262 1117.7551020408164,240.4672897196262 C 1128.591836734694,240.4672897196262 1131,165.32710280373834 1141.8367346938776,165.32710280373834 C 1152.6734693877552,165.32710280373834 1155.0816326530612,261.77570093457945 1165.9183673469388,261.77570093457945 C 1176.7551020408164,261.77570093457945 1179.1632653061224,209.06542056074767 1190,209.06542056074767 L 1190,490 Z" fill="rgba(61,227,195,0.75)"/>
            <path d="M 10,298.78504672897196 C 20.83673469387755,298.78504672897196 23.24489795918367,345.8878504672897 34.08163265306122,345.8878504672897 C 44.91836734693877,345.8878504672897 47.326530612244895,302.14953271028037 58.16326530612245,302.14953271028037 C 69,302.14953271028037 71.40816326530611,380.0934579439252 82.24489795918367,380.0934579439252 C 93.08163265306122,380.0934579439252 95.48979591836735,414.29906542056074 106.3265306122449,414.29906542056074 C 117.16326530612245,414.29906542056074 119.57142857142858,341.4018691588785 130.40816326530614,341.4018691588785 C 141.24489795918367,341.4018691588785 143.65306122448982,215.23364485981307 154.48979591836735,215.23364485981307 C 165.32653061224488,215.23364485981307 167.73469387755102,289.81308411214957 178.57142857142856,289.81308411214957 C 189.40816326530611,289.81308411214957 191.81632653061223,389.6261682242991 202.6530612244898,389.6261682242991 C 213.48979591836735,389.6261682242991 215.89795918367346,239.90654205607476 226.73469387755102,239.90654205607476 C 237.57142857142858,239.90654205607476 239.9795918367347,73.92523364485982 250.81632653061226,73.92523364485982 C 261.6530612244898,73.92523364485982 264.06122448979596,490 274.8979591836735,490 C 285.734693877551,490 288.14285714285717,232.6168224299065 298.9795918367347,232.6168224299065 C 309.8163265306123,232.6168224299065 312.2244897959184,67.196261682243 323.06122448979596,67.196261682243 C 333.8979591836735,67.196261682243 336.3061224489796,456.3551401869159 347.1428571428571,456.3551401869159 C 357.9795918367347,456.3551401869159 360.3877551020408,293.7383177570093 371.2244897959184,293.7383177570093 C 382.0612244897959,293.7383177570093 384.46938775510205,281.4018691588785 395.3061224489796,281.4018691588785 C 406.1428571428571,281.4018691588785 408.55102040816325,131.12149532710282 419.3877551020408,131.12149532710282 C 430.2244897959184,131.12149532710282 432.63265306122446,266.8224299065421 443.46938775510205,266.8224299065421 C 454.3061224489796,266.8224299065421 456.7142857142857,350.373831775701 467.55102040816325,350.373831775701 C 478.38775510204084,350.373831775701 480.7959183673469,382.8971962616822 491.6326530612245,382.8971962616822 C 502.46938775510205,382.8971962616822 504.87755102040813,10 515.7142857142857,10 C 526.5510204081633,10 528.9591836734694,196.7289719626168 539.795918367347,196.7289719626168 C 550.6326530612246,196.7289719626168 553.0408163265306,319.53271028037386 563.8775510204082,319.53271028037386 C 574.7142857142858,319.53271028037386 577.1224489795918,239.34579439252337 587.9591836734694,239.34579439252337 C 598.795918367347,239.34579439252337 601.204081632653,101.96261682242988 612.0408163265306,101.96261682242988 C 622.8775510204082,101.96261682242988 625.2857142857143,386.2616822429907 636.1224489795919,386.2616822429907 C 646.9591836734694,386.2616822429907 649.3673469387755,265.14018691588785 660.204081632653,265.14018691588785 C 671.0408163265306,265.14018691588785 673.4489795918366,370 684.2857142857142,370 C 695.1224489795918,370 697.530612244898,384.57943925233644 708.3673469387755,384.57943925233644 C 719.2040816326531,384.57943925233644 721.6122448979592,361.02803738317755 732.4489795918367,361.02803738317755 C 743.2857142857143,361.02803738317755 745.6938775510204,280.8411214953271 756.530612244898,280.8411214953271 C 767.3673469387755,280.8411214953271 769.7755102040816,417.66355140186914 780.6122448979592,417.66355140186914 C 791.4489795918367,417.66355140186914 793.8571428571428,359.9065420560748 804.6938775510204,359.9065420560748 C 815.530612244898,359.9065420560748 817.938775510204,239.90654205607476 828.7755102040816,239.90654205607476 C 839.6122448979592,239.90654205607476 842.0204081632653,248.3177570093458 852.8571428571429,248.3177570093458 C 863.6938775510205,248.3177570093458 866.1020408163265,311.68224299065423 876.9387755102041,311.68224299065423 C 887.7755102040817,311.68224299065423 890.1836734693877,80.65420560747663 901.0204081632653,80.65420560747663 C 911.8571428571429,80.65420560747663 914.2653061224489,259.53271028037386 925.1020408163265,259.53271028037386 C 935.9387755102041,259.53271028037386 938.3469387755101,341.96261682242994 949.1836734693877,341.96261682242994 C 960.0204081632653,341.96261682242994 962.4285714285714,251.6822429906542 973.265306122449,251.6822429906542 C 984.1020408163266,251.6822429906542 986.5102040816327,253.3644859813084 997.3469387755102,253.3644859813084 C 1008.1836734693877,253.3644859813084 1010.5918367346939,156.9158878504673 1021.4285714285713,156.9158878504673 C 1032.265306122449,156.9158878504673 1034.673469387755,350.9345794392524 1045.5102040816325,350.9345794392524 C 1056.3469387755101,350.9345794392524 1058.7551020408164,322.3364485981308 1069.591836734694,322.3364485981308 C 1080.4285714285716,322.3364485981308 1082.8367346938776,316.7289719626168 1093.6734693877552,316.7289719626168 C 1104.5102040816328,316.7289719626168 1106.9183673469388,240.4672897196262 1117.7551020408164,240.4672897196262 C 1128.591836734694,240.4672897196262 1131,165.32710280373834 1141.8367346938776,165.32710280373834 C 1152.6734693877552,165.32710280373834 1155.0816326530612,261.77570093457945 1165.9183673469388,261.77570093457945 C 1176.7551020408164,261.77570093457945 1179.1632653061224,209.06542056074767 1190,209.06542056074767" fill="none" stroke="#3de3c3" stroke-width="3" stroke-linecap="round" stroke-linejoin="round"/>
            <circle cx="10" cy="298.78504672897196" r="3" fill="#7fffe1"/>
    <circle cx="34.08163265306122" cy="345.8878504672897" r="3" fill="#7fffe1"/>
    <circle cx="58.16326530612245" cy="302.14953271028037" r="3" fill="#7fffe1"/>
    <circle cx="82.24489795918367" cy="380.0934579439252" r="3" fill="#7fffe1"/>
    <circle cx="106.3265306122449" cy="414.29906542056074" r="3" fill="#7fffe1"/>
    <circle cx="130.40816326530614" cy="341.4018691588785" r="3" fill="#7fffe1"/>
    <circle cx="154.48979591836735" cy="215.23364485981307" r="3" fill="#7fffe1"/>
    <circle cx="178.57142857142856" cy="289.81308411214957" r="3" fill="#7fffe1"/>
    <circle cx="202.6530612244898" cy="389.6261682242991" r="3" fill="#7fffe1"/>
    <circle cx="226.73469387755102" cy="239.90654205607476" r="3" fill="#7fffe1"/>
    <circle cx="250.81632653061226" cy="73.92523364485982" r="3" fill="#7fffe1"/>
    <circle cx="274.8979591836735" cy="490" r="3" fill="#7fffe1"/>
    <circle cx="298.9795918367347" cy="232.6168224299065" r="3" fill="#7fffe1"/>
    <circle cx="323.06122448979596" cy="67.196261682243" r="3" fill="#7fffe1"/>
    <circle cx="347.1428571428571" cy="456.3551401869159" r="3" fill="#7fffe1"/>
    <circle cx="371.2244897959184" cy="293.7383177570093" r="3" fill="#7fffe1"/>
    <circle cx="395.3061224489796" cy="281.4018691588785" r="3" fill="#7fffe1"/>
    <circle cx="419.3877551020408" cy="131.12149532710282" r="3" fill="#7fffe1"/>
    <circle cx="443.46938775510205" cy="266.8224299065421" r="3" fill="#7fffe1"/>
    <circle cx="467.55102040816325" cy="350.373831775701" r="3" fill="#7fffe1"/>
    <circle cx="491.6326530612245" cy="382.8971962616822" r="3" fill="#7fffe1"/>
    <circle cx="515.7142857142857" cy="10" r="3" fill="#7fffe1"/>
    <circle cx="539.795918367347" cy="196.7289719626168" r="3" fill="#7fffe1"/>
    <circle cx="563.8775510204082" cy="319.53271028037386" r="3" fill="#7fffe1"/>
    <circle cx="587.9591836734694" cy="239.34579439252337" r="3" fill="#7fffe1"/>
    <circle cx="612.0408163265306" cy="101.96261682242988" r="3" fill="#7fffe1"/>
    <circle cx="636.1224489795919" cy="386.2616822429907" r="3" fill="#7fffe1"/>
    <circle cx="660.204081632653" cy="265.14018691588785" r="3" fill="#7fffe1"/>
    <circle cx="684.2857142857142" cy="370" r="3" fill="#7fffe1"/>
    <circle cx="708.3673469387755" cy="384.57943925233644" r="3" fill="#7fffe1"/>
    <circle cx="732.4489795918367" cy="361.02803738317755" r="3" fill="#7fffe1"/>
    <circle cx="756.530612244898" cy="280.8411214953271" r="3" fill="#7fffe1"/>
    <circle cx="780.6122448979592" cy="417.66355140186914" r="3" fill="#7fffe1"/>
    <circle cx="804.6938775510204" cy="359.9065420560748" r="3" fill="#7fffe1"/>
    <circle cx="828.7755102040816" cy="239.90654205607476" r="3" fill="#7fffe1"/>
    <circle cx="852.8571428571429" cy="248.3177570093458" r="3" fill="#7fffe1"/>
    <circle cx="876.9387755102041" cy="311.68224299065423" r="3" fill="#7fffe1"/>
    <circle cx="901.0204081632653" cy="80.65420560747663" r="3" fill="#7fffe1"/>
    <circle cx="925.1020408163265" cy="259.53271028037386" r="3" fill="#7fffe1"/>
    <circle cx="949.1836734693877" cy="341.96261682242994" r="3" fill="#7fffe1"/>
    <circle cx="973.265306122449" cy="251.6822429906542" r="3" fill="#7fffe1"/>
    <circle cx="997.3469387755102" cy="253.3644859813084" r="3" fill="#7fffe1"/>
    <circle cx="1021.4285714285713" cy="156.9158878504673" r="3" fill="#7fffe1"/>
    <circle cx="1045.5102040816325" cy="350.9345794392524" r="3" fill="#7fffe1"/>
    <circle cx="1069.591836734694" cy="322.3364485981308" r="3" fill="#7fffe1"/>
    <circle cx="1093.6734693877552" cy="316.7289719626168" r="3" fill="#7fffe1"/>
    <circle cx="1117.7551020408164" cy="240.4672897196262" r="3" fill="#7fffe1"/>
    <circle cx="1141.8367346938776" cy="165.32710280373834" r="3" fill="#7fffe1"/>
    <circle cx="1165.9183673469388" cy="261.77570093457945" r="3" fill="#7fffe1"/>
    <circle cx="1190" cy="209.06542056074767" r="3" fill="#7fffe1"/>
        </g>
    </svg>
    