
    <svg xmlns="http://www.w3.org/2000/svg" viewBox="0 0 1200 500" width="1200" height="500">
        <defs>
            <clipPath id="c"><rect x="10" y="10" width="1180" height="480"/></clipPath>
        </defs>
        <rect width="1200" height="500" fill="none"/>
        <g clip-path="url(#c)">
            <path d="M 10,490 L 10,480.1466275659824 C 20.83673469387755,480.1466275659824 23.24489795918367,307.00879765395894 34.08163265306122,307.00879765395894 C 44.91836734693877,307.00879765395894 47.326530612244895,460.4398826979472 58.16326530612245,460.4398826979472 C 69,460.4398826979472 71.40816326530611,87.41935483870964 82.24489795918367,87.41935483870964 C 93.08163265306122,87.41935483870964 95.48979591836735,235.21994134897363 106.3265306122449,235.21994134897363 C 117.16326530612245,235.21994134897363 119.57142857142858,226.77419354838713 130.40816326530614,226.77419354838713 C 141.24489795918367,226.77419354838713 143.65306122448982,78.97360703812313 154.48979591836735,78.97360703812313 C 165.32653061224488,78.97360703812313 167.73469387755102,71.93548387096774 178.57142857142856,71.93548387096774 C 189.40816326530611,71.93548387096774 191.81632653061223,101.49560117302053 202.6530612244898,101.49560117302053 C 213.48979591836735,101.49560117302053 215.89795918367346,471.7008797653959 226.73469387755102,471.7008797653959 C 237.57142857142858,471.7008797653959 239.9795918367347,216.92082111436946 250.81632653061226,216.92082111436946 C 261.6530612244898,216.92082111436946 264.06122448979596,229.5894428152493 274.8979591836735,229.5894428152493 C 285.734693877551,229.5894428152493 288.14285714285717,337.97653958944284 298.9795918367347,337.97653958944284 C 309.8163265306123,337.97653958944284 312.2244897959184,121.2023460410557 323.06122448979596,121.2023460410557 C 333.8979591836735,121.2023460410557 336.3061224489796,463.2551319648094 347.1428571428571,463.2551319648094 C 357.9795918367347,463.2551319648094 360.3877551020408,115.57184750733137 371.2244897959184,115.57184750733137 C 382.0612244897959,115.57184750733137 384.46938775510205,250.70381231671553 395.3061224489796,250.70381231671553 C 406.1428571428571,250.70381231671553 408.55102040816325,392.87390029325513 419.3877551020408,392.87390029325513 C 430.2244897959184,392.87390029325513 432.63265306122446,91.64222873900292 443.46938775510205,91.64222873900292 C 454.3061224489796,91.64222873900292 456.7142857142857,229.5894428152493 467.55102040816325,229.5894428152493 C 478.38775510204084,229.5894428152493 480.7959183673469,474.51612903225805 491.6326530612245,474.51612903225805 C 502.46938775510205,474.51612903225805 504.87755102040813,444.95601173020526 515.7142857142857,444.95601173020526 C 526.5510204081633,444.95601173020526 528.9591836734694,98.68035190615831 539.795918367347,98.68035190615831 C 550.6326530612246,98.68035190615831 553.0408163265306,453.40175953079176 563.8775510204082,453.40175953079176 C 574.7142857142858,453.40175953079176 577.1224489795918,456.21700879765393 587.9591836734694,456.21700879765393 C 598.795918367347,456.21700879765393 601.204081632653,466.07038123167155 612.0408163265306,466.07038123167155 C 622.8775510204082,466.07038123167155 625.2857142857143,394.2815249266862 636.1224489795919,394.2815249266862 C 646.9591836734694,394.2815249266862 649.3673469387755,309.8240469208211 660.204081632653,309.8240469208211 C 671.0408163265306,309.8240469208211 673.4489795918366,471.7008797653959 684.2857142857142,471.7008797653959 C 695.1224489795918,471.7008797653959 697.530612244898,419.61876832844575 708.3673469387755,419.61876832844575 C 719.2040816326531,419.61876832844575 721.6122448979592,429.47214076246337 732.4489795918367,429.47214076246337 C 743.2857142857143,429.47214076246337 745.6938775510204,461.8475073313783 756.530612244898,461.8475073313783 C 767.3673469387755,461.8475073313783 769.7755102040816,444.95601173020526 780.6122448979592,444.95601173020526 C 791.4489795918367,444.95601173020526 793.8571428571428,466.07038123167155 804.6938775510204,466.07038123167155 C 815.530612244898,466.07038123167155 817.938775510204,426.65689149560114 828.7755102040816,426.65689149560114 C 839.6122448979592,426.65689149560114 842.0204081632653,466.07038123167155 852.8571428571429,466.07038123167155 C 863.6938775510205,466.07038123167155 866.1020408163265,490 876.9387755102041,490 C 887.7755102040817,490 890.1836734693877,409.76539589442814 901.0204081632653,409.76539589442814 C 911.8571428571429,409.76539589442814 914.2653061224489,178.91495601173023 925.1020408163265,178.91495601173023 C 935.9387755102041,178.91495601173023 938.3469387755101,95.86510263929614 949.1836734693877,95.86510263929614 C 960.0204081632653,95.86510263929614 962.4285714285714,10 973.265306122449,10 C 984.1020408163266,10 986.5102040816327,436.51026392961876 997.3469387755102,436.51026392961876 C 1008.1836734693877,436.51026392961876 1010.5918367346939,101.49560117302053 1021.4285714285713,101.49560117302053 C 1032.265306122449,101.49560117302053 1034.673469387755,343.6070381231672 1045.5102040816325,343.6070381231672 C 1056.3469387755101,343.6070381231672 1058.7551020408164,442.1407624633431 1069.591836734694,442.1407624633431 C 1080.4285714285716,442.1407624633431 1082.8367346938776,464.6627565982405 1093.6734693877552,464.6627565982405 C 1104.5102040816328,464.6627565982405 1106.9183673469388,449.17888563049854 1117.7551020408164,449.17888563049854 C 1128.591836734694,449.17888563049854 1131,108.53372434017598 1141.8367346938776,108.53372434017598 C 1152.6734693877552,108.53372434017598 1155.0816326530612,401.31964809384164 1165.9183673469388,401.31964809384164 C 1176.7551020408164,401.31964809384164 1179.1632653061224,408.3577712609971 1190,408.3577712609971 L 1190,490 Z" fill="rgba(61,227,195,0.75)"/>
            <path d="M 10,480.1466275659824 C 20.83673469387755,480.1466275659824 23.24489795918367,307.00879765395894 34.08163265306122,307.00879765395894 C 44.91836734693877,307.00879765395894 47.326530612244895,460.4398826979472 58.16326530612245,460.4398826979472 C 69,460.4398826979472 71.40816326530611,87.41935483870964 82.24489795918367,87.41935483870964 C 93.08163265306122,87.41935483870964 95.48979591836735,235.21994134897363 106.3265306122449,235.21994134897363 C 117.16326530612245,235.21994134897363 119.57142857142858,226.77419354838713 130.40816326530614,226.77419354838713 C 141.24489795918367,226.77419354838713 143.65306122448982,78.97360703812313 154.48979591836735,78.97360703812313 C 165.32653061224488,78.97360703812313 167.73469387755102,71.93548387096774 178.57142857142856,71.93548387096774 C 189.40816326530611,71.93548387096774 191.81632653061223,101.49560117302053 202.6530612244898,101.49560117302053 C 213.48979591836735,101.49560117302053 215.89795918367346,471.7008797653959 226.73469387755102,471.7008797653959 C 237.57142857142858,471.7008797653959 239.9795918367347,216.92082111436946 250.81632653061226,216.92082111436946 C 261.6530612244898,216.92082111436946 264.06122448979596,229.5894428152493 274.8979591836735,229.5894428152493 C 285.734693877551,229.5894428152493 288.14285714285717,337.97653958944284 298.9795918367347,337.97653958944284 C 309.8163265306123,337.97653958944284 312.2244897959184,121.2023460410557 323.06122448979596,121.2023460410557 C 333.8979591836735,121.2023460410557 336.3061224489796,463.2551319648094 347.1428571428571,463.2551319648094 C 357.9795918367347,463.2551319648094 360.3877551020408,115.57184750733137 371.2244897959184,115.57184750733137 C 382.0612244897959,115.57184750733137 384.46938775510205,250.70381231671553 395.3061224489796,250.70381231671553 C 406.1428571428571,250.70381231671553 408.55102040816325,392.87390029325513 419.3877551020408,392.87390029325513 C 430.2244897959184,392.87390029325513 432.63265306122446,91.64222873900292 443.46938775510205,91.64222873900292 C 454.3061224489796,91.64222873900292 456.7142857142857,229.5894428152493 467.55102040816325,229.5894428152493 C 478.38775510204084,229.5894428152493 480.7959183673469,474.51612903225805 491.6326530612245,474.51612903225805 C 502.46938775510205,474.51612903225805 504.87755102040813,444.95601173020526 515.7142857142857,444.95601173020526 C 526.5510204081633,444.95601173020526 528.9591836734694,98.68035190615831 539.795918367347,98.68035190615831 C 550.6326530612246,98.68035190615831 553.0408163265306,453.40175953079176 563.8775510204082,453.40175953079176 C 574.7142857142858,453.40175953079176 577.1224489795918,456.21700879765393 587.9591836734694,456.21700879765393 C 598.795918367347,456.21700879765393 601.204081632653,466.07038123167155 612.0408163265306,466.07038123167155 C 622.8775510204082,466.07038123167155 625.2857142857143,394.2815249266862 636.1224489795919,394.2815249266862 C 646.9591836734694,394.2815249266862 649.3673469387755,309.8240469208211 660.204081632653,309.8240469208211 C 671.0408163265306,309.8240469208211 673.4489795918366,471.7008797653959 684.2857142857142,471.7008797653959 C 695.1224489795918,471.7008797653959 697.530612244898,419.61876832844575 708.3673469387755,419.61876832844575 C 719.2040816326531,419.61876832844575 721.6122448979592,429.47214076246337 732.4489795918367,429.47214076246337 C 743.2857142857143,429.47214076246337 745.6938775510204,461.8475073313783 756.530612244898,461.8475073313783 C 767.3673469387755,461.8475073313783 769.7755102040816,444.95601173020526 780.6122448979592,444.95601173020526 C 791.4489795918367,444.95601173020526 793.8571428571428,466.07038123167155 804.6938775510204,466.07038123167155 C 815.530612244898,466.07038123167155 817.938775510204,426.65689149560114 828.7755102040816,426.65689149560114 C 839.6122448979592,426.65689149560114 842.0204081632653,466.07038123167155 852.8571428571429,466.07038123167155 C 863.6938775510205,466.07038123167155 866.1020408163265,490 876.9387755102041,490 C 887.7755102040817,490 890.1836734693877,409.76539589442814 901.0204081632653,409.76539589442814 C 911.8571428571429,409.76539589442814 914.2653061224489,178.91495601173023 925.1020408163265,178.91495601173023 C 935.9387755102041,178.91495601173023 938.3469387755101,95.86510263929614 949.1836734693877,95.86510263929614 C 960.0204081632653,95.86510263929614 962.4285714285714,10 973.265306122449,10 C 984.1020408163266,10 986.5102040816327,436.51026392961876 997.3469387755102,436.51026392961876 C 1008.1836734693877,436.51026392961876 1010.5918367346939,101.49560117302053 1021.4285714285713,101.49560117302053 C 1032.265306122449,101.49560117302053 1034.673469387755,343.6070381231672 1045.5102040816325,343.6070381231672 C 1056.3469387755101,343.6070381231672 1058.7551020408164,442.1407624633431 1069.591836734694,442.1407624633431 C 1080.4285714285716,442.1407624633431 1082.8367346938776,464.6627565982405 1093.6734693877552,464.6627565982405 C 1104.5102040816328,464.6627565982405 1106.9183673469388,449.17888563049854 1117.7551020408164,449.17888563049854 C 1128.591836734694,449.17888563049854 1131,108.53372434017598 1141.8367346938776,108.53372434017598 C 1152.6734693877552,108.53372434017598 1155.0816326530612,401.31964809384164 1165.9183673469388,401.31964809384164 C 1176.7551020408164,401.31964809384164 1179.1632653061224,408.3577712609971 1190,408.3577712609971" fill="none" stroke="#3de3c3" stroke-width="3" stroke-linecap="round" stroke-linejoin="round"/>
            <circle cx="10" cy="480.1466275659824" r="3" fill="#7fffe1"/>
    <circle cx="34.08163265306122" cy="307.00879765395894" r="3" fill="#7fffe1"/>
    <circle cx="58.16326530612245" cy="460.4398826979472" r="3" fill="#7fffe1"/>
    <circle cx="82.24489795918367" cy="87.41935483870964" r="3" fill="#7fffe1"/>
    <circle cx="106.3265306122449" cy="235.21994134897363" r="3" fill="#7fffe1"/>
    <circle cx="130.40816326530614" cy="226.77419354838713" r="3" fill="#7fffe1"/>
    <circle cx="154.48979591836735" cy="78.97360703812313" r="3" fill="#7fffe1"/>
    <circle cx="178.57142857142856" cy="71.93548387096774" r="3" fill="#7fffe1"/>
    <circle cx="202.6530612244898" cy="101.49560117302053" r="3" fill="#7fffe1"/>
    <circle cx="226.73469387755102" cy="471.7008797653959" r="3" fill="#7fffe1"/>
    <circle cx="250.81632653061226" cy="216.92082111436946" r="3" fill="#7fffe1"/>
    <circle cx="274.8979591836735" cy="229.5894428152493" r="3" fill="#7fffe1"/>
    <circle cx="298.9795918367347" cy="337.97653958944284" r="3" fill="#7fffe1"/>
    <circle cx="323.06122448979596" cy="121.2023460410557" r="3" fill="#7fffe1"/>
    <circle cx="347.1428571428571" cy="463.2551319648094" r="3" fill="#7fffe1"/>
    <circle cx="371.2244897959184" cy="115.57184750733137" r="3" fill="#7fffe1"/>
    <circle cx="395.3061224489796" cy="250.70381231671553" r="3" fill="#7fffe1"/>
    <circle cx="419.3877551020408" cy="392.87390029325513" r="3" fill="#7fffe1"/>
    <circle cx="443.46938775510205" cy="91.64222873900292" r="3" fill="#7fffe1"/>
    <circle cx="467.55102040816325" cy="229.5894428152493" r="3" fill="#7fffe1"/>
    <circle cx="491.6326530612245" cy="474.51612903225805" r="3" fill="#7fffe1"/>
    <circle cx="515.7142857142857" cy="444.95601173020526" r="3" fill="#7fffe1"/>
    <circle cx="539.795918367347" cy="98.68035190615831" r="3" fill="#7fffe1"/>
    <circle cx="563.8775510204082" cy="453.40175953079176" r="3" fill="#7fffe1"/>
    <circle cx="587.9591836734694" cy="456.21700879765393" r="3" fill="#7fffe1"/>
    <circle cx="612.0408163265306" cy="466.07038123167155" r="3" fill="#7fffe1"/>
    <circle cx="636.1224489795919" cy="394.2815249266862" r="3" fill="#7fffe1"/>
    <circle cx="660.204081632653" cy="309.8240469208211" r="3" fill="#7fffe1"/>
    <circle cx="684.2857142857142" cy="471.7008797653959" r="3" fill="#7fffe1"/>
    <circle cx="708.3673469387755" cy="419.61876832844575" r="3" fill="#7fffe1"/>
    <circle cx="732.4489795918367" cy="429.47214076246337" r="3" fill="#7fffe1"/>
    <circle cx="756.530612244898" cy="461.8475073313783" r="3" fill="#7fffe1"/>
    <circle cx="780.6122448979592" cy="444.95601173020526" r="3" fill="#7fffe1"/>
    <circle cx="804.6938775510204" cy="466.07038123167155" r="3" fill="#7fffe1"/>
    <circle cx="828.7755102040816" cy="426.65689149560114" r="3" fill="#7fffe1"/>
    <circle cx="852.8571428571429" cy="466.07038123167155" r="3" fill="#7fffe1"/>
    <circle cx="876.9387755102041" cy="490" r="3" fill="#7fffe1"/>
    <circle cx="901.0204081632653" cy="409.76539589442814" r="3" fill="#7fffe1"/>
    <circle cx="925.1020408163265" cy="178.91495601173023" r="3" fill="#7fffe1"/>
    <circle cx="949.1836734693877" cy="95.86510263929614" r="3" fill="#7fffe1"/>
    <circle cx="973.265306122449" cy="10" r="3" fill="#7fffe1"/>
    <circle cx="997.3469387755102" cy="436.51026392961876" r="3" fill="#7fffe1"/>
    <circle cx="1021.4285714285713" cy="101.49560117302053" r="3" fill="#7fffe1"/>
    <circle cx="1045.5102040816325" cy="343.6070381231672" r="3" fill="#7fffe1"/>
    <circle cx="1069.591836734694" cy="442.1407624633431" r="3" fill="#7fffe1"/>
    <circle cx="1093.6734693877552" cy="464.6627565982405" r="3" fill="#7fffe1"/>
    <circle cx="1117.7551020408164" cy="449.17888563049854" r="3" fill="#7fffe1"/>
    <circle cx="1141.8367346938776" cy="108.53372434017598" r="3" fill="#7fffe1"/>
    <circle cx="1165.9183673469388" cy="401.31964809384164" r="3" fill="#7fffe1"/>
    <circle cx="1190" cy="408.3577712609971" r="3" fill="#7fffe1"/>
        </g>
    </svg>
    