
    <svg xmlns="http://www.w3.org/2000/svg" viewBox="0 0 1200 500" width="1200" height="500">
        <defs>
            <clipPath id="c"><rect x="10" y="10" width="1180" height="480"/></clipPath>
        </defs>
        <rect width="1200" height="500" fill="none"/>
        <g clip-path="url(#c)">
            <path d="M 10,490 L 10,260.2857142857143 C 20.83673469387755,260.2857142857143 23.24489795918367,488.2857142857143 34.08163265306122,488.2857142857143 C 44.91836734693877,488.2857142857143 47.326530612244895,238 58.16326530612245,238 C 69,238 71.40816326530611,109.42857142857144 82.24489795918367,109.42857142857144 C 93.08163265306122,109.42857142857144 95.48979591836735,430 106.3265306122449,430 C 117.16326530612245,430 119.57142857142858,147.1428571428571 130.40816326530614,147.1428571428571 C 141.24489795918367,147.1428571428571 143.65306122448982,342.57142857142856 154.48979591836735,342.57142857142856 C 165.32653061224488,342.57142857142856 167.73469387755102,455.7142857142857 178.57142857142856,455.7142857142857 C 189.40816326530611,455.7142857142857 191.81632653061223,35.71428571428572 202.6530612244898,35.71428571428572 C 213.48979591836735,35.71428571428572 215.89795918367346,313.42857142857144 226.73469387755102,313.42857142857144 C 237.57142857142858,313.42857142857144 239.9795918367347,118 250.81632653061226,118 C 261.6530612244898,118 264.06122448979596,169.42857142857144 274.8979591836735,169.42857142857144 C 285.734693877551,169.42857142857144 288.14285714285717,292.8571428571429 298.9795918367347,292.8571428571429 C 309.8163265306123,292.8571428571429 312.2244897959184,488.2857142857143 323.06122448979596,488.2857142857143 C 333.8979591836735,488.2857142857143 336.3061224489796,299.7142857142857 347.1428571428571,299.7142857142857 C 357.9795918367347,299.7142857142857 360.3877551020408,28.857142857142833 371.2244897959184,28.857142857142833 C 382.0612244897959,28.857142857142833 384.46938775510205,124.85714285714289 395.3061224489796,124.85714285714289 C 406.1428571428571,124.85714285714289 408.55102040816325,316.8571428571429 419.3877551020408,316.8571428571429 C 430.2244897959184,316.8571428571429 432.63265306122446,92.28571428571428 443.46938775510205,92.28571428571428 C 454.3061224489796,92.28571428571428 456.7142857142857,10 467.55102040816325,10 C 478.38775510204084,10 480.7959183673469,430 491.6326530612245,430 C 502.46938775510205,430 504.87755102040813,63.14285714285717 515.7142857142857,63.14285714285717 C 526.5510204081633,63.14285714285717 528.9591836734694,325.42857142857144 539.795918367347,325.42857142857144 C 550.6326530612246,325.42857142857144 553.0408163265306,154 563.8775510204082,154 C 574.7142857142858,154 577.1224489795918,479.7142857142857 587.9591836734694,479.7142857142857 C 598.795918367347,479.7142857142857 601.204081632653,145.42857142857144 612.0408163265306,145.42857142857144 C 622.8775510204082,145.42857142857144 625.2857142857143,13.428571428571445 636.1224489795919,13.428571428571445 C 646.9591836734694,13.428571428571445 649.3673469387755,68.28571428571428 660.204081632653,68.28571428571428 C 671.0408163265306,68.28571428571428 673.4489795918366,16.857142857142833 684.2857142857142,16.857142857142833 C 695.1224489795918,16.857142857142833 697.530612244898,61.42857142857139 708.3673469387755,61.42857142857139 C 719.2040816326531,61.42857142857139 721.6122448979592,490 732.4489795918367,490 C 743.2857142857143,490 745.6938775510204,351.1428571428571 756.530612244898,351.1428571428571 C 767.3673469387755,351.1428571428571 769.7755102040816,344.28571428571433 780.6122448979592,344.28571428571433 C 791.4489795918367,344.28571428571433 793.8571428571428,148.85714285714283 804.6938775510204,148.85714285714283 C 815.530612244898,148.85714285714283 817.938775510204,112.85714285714289 828.7755102040816,112.85714285714289 C 839.6122448979592,112.85714285714289 842.0204081632653,47.71428571428572 852.8571428571429,47.71428571428572 C 863.6938775510205,47.71428571428572 866.1020408163265,107.71428571428572 876.9387755102041,107.71428571428572 C 887.7755102040817,107.71428571428572 890.1836734693877,486.57142857142856 901.0204081632653,486.57142857142856 C 911.8571428571429,486.57142857142856 914.2653061224489,486.57142857142856 925.1020408163265,486.57142857142856 C 935.9387755102041,486.57142857142856 938.3469387755101,486.57142857142856 949.1836734693877,486.57142857142856 C 960.0204081632653,486.57142857142856 962.4285714285714,486.57142857142856 973.265306122449,486.57142857142856 C 984.1020408163266,486.57142857142856 986.5102040816327,292.8571428571429 997.3469387755102,292.8571428571429 C 1008.1836734693877,292.8571428571429 1010.5918367346939,484.85714285714283 1021.4285714285713,484.85714285714283 C 1032.265306122449,484.85714285714283 1034.673469387755,178 1045.5102040816325,178 C 1056.3469387755101,178 1058.7551020408164,166 1069.591836734694,166 C 1080.4285714285716,166 1082.8367346938776,59.71428571428572 1093.6734693877552,59.71428571428572 C 1104.5102040816328,59.71428571428572 1106.9183673469388,455.7142857142857 1117.7551020408164,455.7142857142857 C 1128.591836734694,455.7142857142857 1131,483.14285714285717 1141.8367346938776,483.14285714285717 C 1152.6734693877552,483.14285714285717 1155.0816326530612,352.8571428571429 1165.9183673469388,352.8571428571429 C 1176.7551020408164,352.8571428571429 1179.1632653061224,49.428571428571445 1190,49.428571428571445 L 1190,490 Z" fill="rgba(61,227,195,0.75)"/>
            <path d="M 10,260.2857142857143 C 20.83673469387755,260.2857142857143 23.24489795918367,488.2857142857143 34.08163265306122,488.2857142857143 C 44.91836734693877,488.2857142857143 47.326530612244895,238 58.16326530612245,238 C 69,238 71.40816326530611,109.42857142857144 82.24489795918367,109.42857142857144 C 93.08163265306122,109.42857142857144 95.48979591836735,430 106.3265306122449,430 C 117.16326530612245,430 119.57142857142858,147.1428571428571 130.40816326530614,147.1428571428571 C 141.24489795918367,147.1428571428571 143.65306122448982,342.57142857142856 154.48979591836735,342.57142857142856 C 165.32653061224488,342.57142857142856 167.73469387755102,455.7142857142857 178.57142857142856,455.7142857142857 C 189.40816326530611,455.7142857142857 191.81632653061223,35.71428571428572 202.6530612244898,35.71428571428572 C 213.48979591836735,35.71428571428572 215.89795918367346,313.42857142857144 226.73469387755102,313.42857142857144 C 237.57142857142858,313.42857142857144 239.9795918367347,118 250.81632653061226,118 C 261.6530612244898,118 264.06122448979596,169.42857142857144 274.8979591836735,169.42857142857144 C 285.734693877551,169.42857142857144 288.14285714285717,292.8571428571429 298.9795918367347,292.8571428571429 C 309.8163265306123,292.8571428571429 312.2244897959184,488.2857142857143 323.06122448979596,488.2857142857143 C 333.8979591836735,488.2857142857143 336.3061224489796,299.7142857142857 347.1428571428571,299.7142857142857 C 357.9795918367347,299.7142857142857 360.3877551020408,28.857142857142833 371.2244897959184,28.857142857142833 C 382.0612244897959,28.857142857142833 384.46938775510205,124.85714285714289 395.3061224489796,124.85714285714289 C 406.1428571428571,124.85714285714289 408.55102040816325,316.8571428571429 419.3877551020408,316.8571428571429 C 430.2244897959184,316.8571428571429 432.63265306122446,92.28571428571428 443.46938775510205,92.28571428571428 C 454.3061224489796,92.28571428571428 456.7142857142857,10 467.55102040816325,10 C 478.38775510204084,10 480.7959183673469,430 491.6326530612245,430 C 502.46938775510205,430 504.87755102040813,63.14285714285717 515.7142857142857,63.14285714285717 C 526.5510204081633,63.14285714285717 528.9591836734694,325.42857142857144 539.795918367347,325.42857142857144 C 550.6326530612246,325.42857142857144 553.0408163265306,154 563.8775510204082,154 C 574.7142857142858,154 577.1224489795918,479.7142857142857 587.9591836734694,479.7142857142857 C 598.795918367347,479.7142857142857 601.204081632653,145.42857142857144 612.0408163265306,145.42857142857144 C 622.8775510204082,145.42857142857144 625.2857142857143,13.428571428571445 636.1224489795919,13.428571428571445 C 646.9591836734694,13.428571428571445 649.3673469387755,68.28571428571428 660.204081632653,68.28571428571428 C 671.0408163265306,68.28571428571428 673.4489795918366,16.857142857142833 684.2857142857142,16.857142857142833 C 695.1224489795918,16.857142857142833 697.530612244898,61.42857142857139 708.3673469387755,61.42857142857139 C 719.2040816326531,61.42857142857139 721.6122448979592,490 732.4489795918367,490 C 743.2857142857143,490 745.6938775510204,351.1428571428571 756.530612244898,351.1428571428571 C 767.3673469387755,351.1428571428571 769.7755102040816,344.28571428571433 780.6122448979592,344.28571428571433 C 791.4489795918367,344.28571428571433 793.8571428571428,148.85714285714283 804.6938775510204,148.85714285714283 C 815.530612244898,148.85714285714283 817.938775510204,112.85714285714289 828.7755102040816,112.85714285714289 C 839.6122448979592,112.85714285714289 842.0204081632653,47.71428571428572 852.8571428571429,47.71428571428572 C 863.6938775510205,47.71428571428572 866.1020408163265,107.71428571428572 876.9387755102041,107.71428571428572 C 887.7755102040817,107.71428571428572 890.1836734693877,486.57142857142856 901.0204081632653,486.57142857142856 C 911.8571428571429,486.57142857142856 914.2653061224489,486.57142857142856 925.1020408163265,486.57142857142856 C 935.9387755102041,486.57142857142856 938.3469387755101,486.57142857142856 949.1836734693877,486.57142857142856 C 960.0204081632653,486.57142857142856 962.4285714285714,486.57142857142856 973.265306122449,486.57142857142856 C 984.1020408163266,486.57142857142856 986.5102040816327,292.8571428571429 997.3469387755102,292.8571428571429 C 1008.1836734693877,292.8571428571429 1010.5918367346939,484.85714285714283 1021.4285714285713,484.85714285714283 C 1032.265306122449,484.85714285714283 1034.673469387755,178 1045.5102040816325,178 C 1056.3469387755101,178 1058.7551020408164,166 1069.591836734694,166 C 1080.4285714285716,166 1082.8367346938776,59.71428571428572 1093.6734693877552,59.71428571428572 C 1104.5102040816328,59.71428571428572 1106.9183673469388,455.7142857142857 1117.7551020408164,455.7142857142857 C 1128.591836734694,455.7142857142857 1131,483.14285714285717 1141.8367346938776,483.14285714285717 C 1152.6734693877552,483.14285714285717 1155.0816326530612,352.8571428571429 1165.9183673469388,352.8571428571429 C 1176.7551020408164,352.8571428571429 1179.1632653061224,49.428571428571445 1190,49.428571428571445" fill="none" stroke="#3de3c3" stroke-width="3" stroke-linecap="round" stroke-linejoin="round"/>
            <circle cx="10" cy="260.2857142857143" r="3" fill="#7fffe1"/>
    <circle cx="34.08163265306122" cy="488.2857142857143" r="3" fill="#7fffe1"/>
    <circle cx="58.16326530612245" cy="238" r="3" fill="#7fffe1"/>
    <circle cx="82.24489795918367" cy="109.42857142857144" r="3" fill="#7fffe1"/>
    <circle cx="106.3265306122449" cy="430" r="3" fill="#7fffe1"/>
    <circle cx="130.40816326530614" cy="147.1428571428571" r="3" fill="#7fffe1"/>
    <circle cx="154.48979591836735" cy="342.57142857142856" r="3" fill="#7fffe1"/>
    <circle cx="178.57142857142856" cy="455.7142857142857" r="3" fill="#7fffe1"/>
    <circle cx="202.6530612244898" cy="35.71428571428572" r="3" fill="#7fffe1"/>
    <circle cx="226.73469387755102" cy="313.42857142857144" r="3" fill="#7fffe1"/>
    <circle cx="250.81632653061226" cy="118" r="3" fill="#7fffe1"/>
    <circle cx="274.8979591836735" cy="169.42857142857144" r="3" fill="#7fffe1"/>
    <circle cx="298.9795918367347" cy="292.8571428571429" r="3" fill="#7fffe1"/>
    <circle cx="323.06122448979596" cy="488.2857142857143" r="3" fill="#7fffe1"/>
    <circle cx="347.1428571428571" cy="299.7142857142857" r="3" fill="#7fffe1"/>
    <circle cx="371.2244897959184" cy="28.857142857142833" r="3" fill="#7fffe1"/>
    <circle cx="395.3061224489796" cy="124.85714285714289" r="3" fill="#7fffe1"/>
    <circle cx="419.3877551020408" cy="316.8571428571429" r="3" fill="#7fffe1"/>
    <circle cx="443.46938775510205" cy="92.28571428571428" r="3" fill="#7fffe1"/>
    <circle cx="467.55102040816325" cy="10" r="3" fill="#7fffe1"/>
    <circle cx="491.6326530612245" cy="430" r="3" fill="#7fffe1"/>
    <circle cx="515.7142857142857" cy="63.14285714285717" r="3" fill="#7fffe1"/>
    <circle cx="539.795918367347" cy="325.42857142857144" r="3" fill="#7fffe1"/>
    <circle cx="563.8775510204082" cy="154" r="3" fill="#7fffe1"/>
    <circle cx="587.9591836734694" cy="479.7142857142857" r="3" fill="#7fffe1"/>
    <circle cx="612.0408163265306" cy="145.42857142857144" r="3" fill="#7fffe1"/>
    <circle cx="636.1224489795919" cy="13.428571428571445" r="3" fill="#7fffe1"/>
    <circle cx="660.204081632653" cy="68.28571428571428" r="3" fill="#7fffe1"/>
    <circle cx="684.2857142857142" cy="16.857142857142833" r="3" fill="#7fffe1"/>
    <circle cx="708.3673469387755" cy="61.42857142857139" r="3" fill="#7fffe1"/>
    <circle cx="732.4489795918367" cy="490" r="3" fill="#7fffe1"/>
    <circle cx="756.530612244898" cy="351.1428571428571" r="3" fill="#7fffe1"/>
    <circle cx="780.6122448979592" cy="344.28571428571433" r="3" fill="#7fffe1"/>
    <circle cx="804.6938775510204" cy="148.85714285714283" r="3" fill="#7fffe1"/>
    <circle cx="828.7755102040816" cy="112.85714285714289" r="3" fill="#7fffe1"/>
    <circle cx="852.8571428571429" cy="47.71428571428572" r="3" fill="#7fffe1"/>
    <circle cx="876.9387755102041" cy="107.71428571428572" r="3" fill="#7fffe1"/>
    <circle cx="901.0204081632653" cy="486.57142857142856" r="3" fill="#7fffe1"/>
    <circle cx="925.1020408163265" cy="486.57142857142856" r="3" fill="#7fffe1"/>
    <circle cx="949.1836734693877" cy="486.57142857142856" r="3" fill="#7fffe1"/>
    <circle cx="973.265306122449" cy="486.57142857142856" r="3" fill="#7fffe1"/>
    <circle cx="997.3469387755102" cy="292.8571428571429" r="3" fill="#7fffe1"/>
    <circle cx="1021.4285714285713" cy="484.85714285714283" r="3" fill="#7fffe1"/>
    <circle cx="1045.5102040816325" cy="178" r="3" fill="#7fffe1"/>
    <circle cx="1069.591836734694" cy="166" r="3" fill="#7fffe1"/>
    <circle cx="1093.6734693877552" cy="59.71428571428572" r="3" fill="#7fffe1"/>
    <circle cx="1117.7551020408164" cy="455.7142857142857" r="3" fill="#7fffe1"/>
    <circle cx="1141.8367346938776" cy="483.14285714285717" r="3" fill="#7fffe1"/>
    <circle cx="1165.9183673469388" cy="352.8571428571429" r="3" fill="#7fffe1"/>
    <circle cx="1190" cy="49.428571428571445" r="3" fill="#7fffe1"/>
        </g>
    </svg>
    